PathFileType	4	(X/Y/Z)	9_2_14_p0_0-247_filt_butterworth.trc
DataRate	CameraRate	NumFrames	NumMarkers	Units	OrigDataRate	OrigDataStartFrame	OrigNumFrames
59.0	59.0	4	27	m	59.0	0	247
Frame#	Time	RHip			RKnee			RAnkle			RBigToe			RSmallToe			RHeel			LHip			LKnee			LAnkle			LBigToe			LSmallToe			LHeel			Neck			Head			Nose			RShoulder			RElbow			RWrist			RThumb			RIndex			RPinky			LShoulder			LElbow			LWrist			LThumb			LIndex			LPinky			
		X1	Y1	Z1	X2	Y2	Z2	X3	Y3	Z3	X4	Y4	Z4	X5	Y5	Z5	X6	Y6	Z6	X7	Y7	Z7	X8	Y8	Z8	X9	Y9	Z9	X10	Y10	Z10	X11	Y11	Z11	X12	Y12	Z12	X13	Y13	Z13	X14	Y14	Z14	X15	Y15	Z15	X16	Y16	Z16	X17	Y17	Z17	X18	Y18	Z18	X19	Y19	Z19	X20	Y20	Z20	X21	Y21	Z21	X22	Y22	Z22	X23	Y23	Z23	X24	Y24	Z24	X25	Y25	Z25	X26	Y26	Z26	X27	Y27	Z27	
0	0.0	0.27941414026435846	0.47166309611288476	1.026098965107009	0.29447004649313224	0.5218426451824539	1.4542564046214246	0.30046059275051934	0.59520030626953	1.857322869989875	0.27582224354245866	0.43519368691140536	1.8950762016334632	0.3309253934475613	0.4662705195321269	1.8950078339650338	0.27284279086954655	0.6935678188818251	1.9387382812201297	0.07829379145058946	0.48550485982281844	1.0354903138712301	0.08040370888272623	0.5273080359765911	1.4594845122966988	0.09303189038297935	0.5812326138471289	1.8639379691643703	0.10519883961834044	0.4636007320654624	1.9124046864594089	0.05251644233538987	0.45670553115025	1.8828865656040392	0.09610344853970455	0.6113275472441944	1.9071408460401094	0.18138495029081605	0.4389434830535924	0.509919446205908	0.19598964999292154	0.3443373589420796	0.26194221366908094	0.18339907605054367	0.2690109750532581	0.39792268593860175	0.3236068079486214	0.4270733339852655	0.591253170607977	0.34792811110031535	0.4058112134010038	0.8583807721734473	0.24787463102495697	0.37652645207068847	1.0415675696612734	0.1819617938604431	0.32293112868677354	1.1366669902227584	0.17216833399779025	0.3499755717876623	1.1559077563233786	0.20080487640846212	0.3292681068724397	1.153592662390476	0.05765128381462674	0.4301738734521505	0.5935138782126456	0.01499551357909508	0.4143886336963673	0.8544979590338336	0.1376134223104535	0.3539915156123024	1.0396949731098386	0.21565865395051667	0.3215856688371078	1.1160341934187765	0.2156081310451204	0.3223546070927753	1.1328690276106168	0.1762785959360545	0.3498413318610727	1.1626283098402208
1	0.0169491525423728	0.28152021429322804	0.4733789197369542	1.0254940308221825	0.2982227484541784	0.5299083604213933	1.4570966869072266	0.3003313785788934	0.5950846330914135	1.8610348025219607	0.27589764873024414	0.43537234697243876	1.8949234568396167	0.33078002472748663	0.46617895207953625	1.8946215549528047	0.2760355838653069	0.6831341009707863	1.9332904498449253	0.07862472771959345	0.4849821724146596	1.0372760989668468	0.08085604990499651	0.52872981561496	1.462835960021785	0.09258212514764763	0.5815472410594142	1.8658103025821433	0.10534422256493747	0.463080914064949	1.913265343557422	0.052542307400024295	0.45648918451240134	1.88256936411011	0.09689080607374959	0.6130554975535429	1.91088853043292	0.1814172723866577	0.4390861974184619	0.5099473266557162	0.19850111716337465	0.35152804816405775	0.26161576846342743	0.1833264805723324	0.26862653595390584	0.3966471401818299	0.3235258644065662	0.4272820590575252	0.5902500933538963	0.3482332104954582	0.40575213796264054	0.8560409019092408	0.24790232706250914	0.3765692410463476	1.0414876642545605	0.18008302150790614	0.3221687413444596	1.1387535639836852	0.17316564225006548	0.34358224068113646	1.152702013635797	0.19863955008394835	0.3250462834446309	1.1509741169972179	0.05513510570386321	0.43687383479459774	0.5943322061020472	0.013617483065622476	0.4136191350349164	0.8544970103841771	0.13839442381893388	0.3448956794814744	1.0374859073165903	0.21369845770843812	0.3202061777126313	1.1140650067928752	0.2155194330356355	0.321352457202836	1.1297865503275843	0.17521081896039703	0.3483779156756823	1.1622420642097584
2	0.0338983050847457	0.28307412632929924	0.47450024972440696	1.0250306003911722	0.30071531208446944	0.5356151636477849	1.4593897974051546	0.30031894363752704	0.5954474786919897	1.8644570613314417	0.2759427502579934	0.4354457004103406	1.8948719894498727	0.330681585942449	0.4661248824389853	1.8944364992313518	0.2779335670484672	0.6769143558607886	1.9300945552165696	0.07902979363621829	0.4845871916822305	1.0379464284745168	0.08114046107145287	0.5297000489859062	1.464888739778952	0.09215905913871816	0.5818698622967089	1.8676013978224533	0.10540284044195526	0.46286709623232297	1.9136303367969285	0.052539852955111044	0.45634889364454834	1.882366372291881	0.09789007362412164	0.6144415332873143	1.9133158100975036	0.1814474695896768	0.43917671272948905	0.509960970359484	0.19939969028366777	0.3555992524651515	0.2614051819380724	0.18324479362316382	0.26824165115301446	0.39539156557908844	0.32344630245709155	0.4275407362077436	0.5898529767633995	0.34845858994043727	0.40576827705971663	0.8546214992615795	0.24749563707216998	0.376328110100133	1.0413280044464497	0.17760759764199746	0.32126820994937294	1.1399084931412165	0.17415621358348174	0.3376541567474068	1.1507668827077735	0.19810549080022394	0.3195736108710623	1.1482577887425864	0.054536008176506084	0.4385201486466678	0.5945549402887604	0.012612231025869029	0.41312405656147205	0.8544857127569826	0.13831790769604904	0.3363485581393539	1.0351216606938949	0.21123647331985043	0.31857621179020873	1.1120563025005685	0.21398946739431035	0.31971411414374157	1.127429929517677	0.17499951279964043	0.3446547015700389	1.1610699546805063
3	0.0508474576271186	0.2840202151252366	0.47498837730411186	1.0248313658568193	0.3011597565902112	0.5380000972779414	1.4609319383494839	0.3004490095114093	0.5960017968499365	1.8667636832225465	0.2759537880361534	0.4354141333350495	1.8949312855943736	0.33064252170850084	0.46611265377822864	1.8944715749165995	0.27844751852624616	0.6751888520230956	1.929286738023512	0.07952046289040411	0.4842025695628155	1.0377697405563489	0.08123292101090682	0.5301507268332863	1.4655679164033661	0.09190350024113242	0.5820869704041275	1.8688296587916542	0.10535520712706048	0.46303911905850453	1.913311783420201	0.05254282571747585	0.4563287985995423	1.882436063971939	0.09874112014701746	0.6152584294575104	1.9141221692878299	0.18147499602334027	0.43920193063337587	0.5099589597012547	0.19908018628665827	0.35651098934520215	0.26132443523048304	0.18318908237718343	0.2679620027158448	0.39447386994987843	0.3233844783371241	0.4277941036776548	0.5902438108458863	0.3485799757017044	0.40584814019422194	0.8541892308014699	0.24640988907234063	0.3756429075506534	1.0410561745968585	0.1749109165882049	0.32060520776715695	1.140424041547535	0.1750309559283886	0.33374586298908043	1.1499145261183261	0.1991234619080972	0.31382936749334067	1.1452207449834217	0.05572057797397415	0.43545304830510473	0.5942100571581598	0.011853172401554429	0.4128254218441381	0.8544504697283174	0.1369793827142397	0.3305641019043306	1.0328143336984665	0.20892494741577278	0.3170917010385408	1.1104165110061768	0.21136879727149982	0.31765769010602635	1.125981655455389	0.1761195298949964	0.33832389586650685	1.1589182218376484
